<svg width="27" height="27" viewBox="0 0 27 27" fill="none" xmlns="http://www.w3.org/2000/svg">
<path d="M8.18429 18.7927C6.81871 19.8642 3.84923 20.709 2.85349 20.8578C3.13799 20.1137 4.41228 18.1791 4.13372 16.3933L4.11888 16.3356C2.79977 14.921 2 13.0664 2 11.036C2 6.59784 5.8212 3 10.5349 3C15.2486 3 18.0722 5.87783 18.6634 8.23919M8.18429 18.7927C8.93342 18.9748 9.7215 19.072 10.5349 19.072C9.73033 19.072 8.95177 18.9672 8.21377 18.7713L8.18429 18.7927ZM19.0514 14.0711V19.9745M22.0072 17.0228H16.0956M25 17.0228C25 20.3239 22.3202 23 19.0145 23C15.7088 23 13.029 20.3239 13.029 17.0228C13.029 13.7217 15.7088 11.0456 19.0145 11.0456C22.3202 11.0456 25 13.7217 25 17.0228Z" stroke="#868686" stroke-width="1.5" stroke-linecap="round" stroke-linejoin="round"/>
</svg>
