<svg xmlns="http://www.w3.org/2000/svg" width="25" height="25" viewBox="0 0 25 25" fill="none">
  <path d="M2.77932 3.68923C2.77932 3.38541 2.77932 2.77778 3.85698 2.77777C5.24256 2.77775 20.6378 10.6771 21.7155 11.5885C22.5776 12.3177 22.1759 13.1076 21.714 13.4115C20.6367 14.3226 5.09533 22.2175 3.8555 22.2222C2.77783 22.2222 2.77783 21.6146 2.77783 21.3108L3.85659 14.6267C3.97942 13.8976 4.31858 13.7153 4.47281 13.7153L13.71 12.8038C13.8126 12.8038 14.0179 12.743 14.0179 12.5C14.0179 12.2569 13.8126 12.1962 13.71 12.1962L4.47281 11.2847C4.31858 11.2847 3.97942 11.1024 3.85659 10.3733C3.49599 8.17004 2.77932 3.99305 2.77932 3.68923Z" fill="currentColor"/>
</svg>
