<svg width="27" height="27" viewBox="0 0 27 27" fill="none" xmlns="http://www.w3.org/2000/svg">
<path d="M9.58088 12.2251C9.54743 11.8123 9.18563 11.5047 8.77277 11.5382C8.35991 11.5716 8.05233 11.9334 8.08578 12.3463L9.58088 12.2251ZM8.91912 22.632C8.95257 23.0449 9.31437 23.3524 9.72723 23.319C10.1401 23.2855 10.4477 22.9237 10.4142 22.5109L8.91912 22.632ZM17.5809 12.3463C17.6143 11.9334 17.3068 11.5716 16.8939 11.5382C16.481 11.5047 16.1192 11.8123 16.0858 12.2251L17.5809 12.3463ZM15.2524 22.5109C15.219 22.9237 15.5266 23.2855 15.9394 23.319C16.3523 23.3524 16.7141 23.0449 16.7476 22.632L15.2524 22.5109ZM13.5833 12.2857C13.5833 11.8715 13.2475 11.5357 12.8333 11.5357C12.4191 11.5357 12.0833 11.8715 12.0833 12.2857H13.5833ZM12.0833 22.5714C12.0833 22.9856 12.4191 23.3214 12.8333 23.3214C13.2475 23.3214 13.5833 22.9856 13.5833 22.5714H12.0833ZM6.16667 23.0857L5.42632 23.2057L5.42901 23.2222L5.43243 23.2387L6.16667 23.0857ZM19.6667 23.0857L20.4009 23.2387L20.4043 23.2222L20.407 23.2057L19.6667 23.0857ZM8.08578 12.3463L8.91912 22.632L10.4142 22.5109L9.58088 12.2251L8.08578 12.3463ZM16.0858 12.2251L15.2524 22.5109L16.7476 22.632L17.5809 12.3463L16.0858 12.2251ZM12.0833 12.2857V22.5714H13.5833V12.2857H12.0833ZM4.16667 7.93571C4.09659 7.93571 3.97131 7.90776 3.88385 7.843C3.84743 7.81602 3.81923 7.78428 3.79801 7.74198C3.77688 7.69984 3.75 7.62194 3.75 7.48571H2.25C2.25 8.20137 2.55548 8.72579 2.99115 9.04843C3.3898 9.34366 3.84785 9.43571 4.16667 9.43571V7.93571ZM3.75 7.48571C3.75 7.18098 3.91943 6.86364 4.25833 6.59428C4.6022 6.32097 5.02472 6.17857 5.33333 6.17857V4.67857C4.64195 4.67857 3.8978 4.96475 3.32501 5.42001C2.74724 5.87922 2.25 6.59045 2.25 7.48571H3.75ZM21.8333 9.43571C22.1521 9.43571 22.6102 9.34366 23.0089 9.04843C23.4445 8.72579 23.75 8.20137 23.75 7.48571H22.25C22.25 7.62194 22.2231 7.69984 22.202 7.74198C22.1808 7.78428 22.1526 7.81602 22.1161 7.843C22.0287 7.90776 21.9034 7.93571 21.8333 7.93571V9.43571ZM23.75 7.48571C23.75 6.59045 23.2528 5.87922 22.675 5.42001C22.1022 4.96475 21.3581 4.67857 20.6667 4.67857V6.17857C20.9753 6.17857 21.3978 6.32097 21.7417 6.59428C22.0806 6.86364 22.25 7.18098 22.25 7.48571H23.75ZM20.6667 4.67857H9.16667V6.17857H20.6667V4.67857ZM9.16667 4.67857H5.33333V6.17857H9.16667V4.67857ZM9.91667 5.42857C9.91667 4.86895 9.96404 4.17403 10.2474 3.63434C10.3811 3.37958 10.5624 3.17013 10.8155 3.01974C11.0698 2.8686 11.4424 2.75 12 2.75V1.25C11.2243 1.25 10.5761 1.41712 10.0491 1.73026C9.52095 2.04415 9.16054 2.47756 8.91929 2.93709C8.45262 3.82597 8.41667 4.84533 8.41667 5.42857H9.91667ZM17.75 5.42857C17.75 4.80879 17.664 3.79259 17.1478 2.90781C16.5955 1.96091 15.5975 1.25 14 1.25V2.75C15.0691 2.75 15.5712 3.18195 15.8522 3.66362C16.1694 4.20741 16.25 4.9055 16.25 5.42857H17.75ZM14 1.25H12V2.75H14V1.25ZM4.16667 9.43571H4.66667V7.93571H4.16667V9.43571ZM4.66667 9.43571H21.8333V7.93571H4.66667V9.43571ZM9 25.25C8.66157 25.25 8.25653 25.1587 7.88945 24.8606C7.52524 24.5649 7.12438 24.0055 6.9009 22.9327L5.43243 23.2387C5.70895 24.566 6.25254 25.4637 6.94389 26.0251C7.63236 26.5841 8.39399 26.75 9 26.75V25.25ZM6.90701 22.9658C6.64553 21.3521 5.80408 12.749 5.41334 8.61514L3.91999 8.75629C4.30703 12.851 5.15447 21.5279 5.42632 23.2057L6.90701 22.9658ZM16.8333 26.75C17.4393 26.75 18.201 26.5841 18.8894 26.0251C19.5808 25.4637 20.1244 24.566 20.4009 23.2387L18.9324 22.9327C18.709 24.0055 18.3081 24.5649 17.9439 24.8606C17.5768 25.1587 17.1718 25.25 16.8333 25.25V26.75ZM20.407 23.2057C20.6789 21.5279 21.5263 12.851 21.9133 8.75629L20.42 8.61514C20.0293 12.749 19.1878 21.3521 18.9263 22.9658L20.407 23.2057ZM16.8333 25.25H9V26.75H16.8333V25.25Z" fill="#868686"/>
</svg>
