<svg width="30" height="24" viewBox="0 0 30 24" xmlns="http://www.w3.org/2000/svg">
  <path
    d="M13.0746 23.9757L10.2152 23.146C9.91523 23.0617 9.74648 22.7476 9.83086 22.4476L16.2293 0.406986C16.3137 0.106985 16.6277 -0.0617645 16.9277 0.0226105L19.7871 0.852298C20.0871 0.936673 20.2559 1.25074 20.1715 1.55074L13.773 23.5914C13.684 23.8914 13.3746 24.0648 13.0746 23.9757ZM7.73086 18.7164L9.76992 16.5414C9.98555 16.3117 9.97148 15.946 9.73242 15.7351L5.48555 11.9992L9.73242 8.26324C9.97148 8.0523 9.99023 7.68667 9.76992 7.45699L7.73086 5.28199C7.51992 5.05699 7.16367 5.04292 6.93398 5.25855L0.179297 11.5867C-0.0597656 11.807 -0.0597656 12.1867 0.179297 12.407L6.93398 18.7398C7.16367 18.9554 7.51992 18.946 7.73086 18.7164ZM23.0684 18.7445L29.823 12.4117C30.0621 12.1914 30.0621 11.8117 29.823 11.5914L23.0684 5.25386C22.8434 5.04292 22.4871 5.0523 22.2715 5.2773L20.2324 7.4523C20.0168 7.68199 20.0309 8.04761 20.2699 8.25855L24.5168 11.9992L20.2699 15.7351C20.0309 15.946 20.0121 16.3117 20.2324 16.5414L22.2715 18.7164C22.4824 18.946 22.8387 18.9554 23.0684 18.7445Z"/>
</svg>
