<?xml version="1.0" encoding="utf-8"?><svg xmlns="http://www.w3.org/2000/svg" xmlns:xlink="http://www.w3.org/1999/xlink"><symbol viewBox="0 0 30 24" id="source-code-tab" xmlns="http://www.w3.org/2000/svg"><path d="m13.075 23.976-2.86-.83a.563.563 0 0 1-.384-.698L16.229.407a.563.563 0 0 1 .699-.384l2.86.83c.3.084.468.398.384.698l-6.399 22.04a.562.562 0 0 1-.698.385Zm-5.344-5.26 2.039-2.175a.563.563 0 0 0-.038-.806L5.486 12l4.246-3.736a.559.559 0 0 0 .038-.806L7.73 5.282a.563.563 0 0 0-.796-.023L.179 11.587c-.239.22-.239.6 0 .82l6.755 6.333c.23.215.586.206.797-.024Zm15.337.028 6.755-6.332c.24-.22.24-.6 0-.82l-6.755-6.338a.568.568 0 0 0-.797.023l-2.039 2.175a.563.563 0 0 0 .038.807l4.247 3.74-4.247 3.736a.559.559 0 0 0-.038.806l2.04 2.175c.21.23.567.24.796.028Z"/></symbol><symbol viewBox="0 0 32 30" id="viewer-tab" xmlns="http://www.w3.org/2000/svg"><path d="M31.808 14.189C28.797 8.31 22.83 4.333 16.003 4.333 9.175 4.333 3.208 8.311.197 14.19a1.8 1.8 0 0 0 0 1.622c3.011 5.878 8.978 9.856 15.806 9.856 6.827 0 12.794-3.978 15.805-9.856a1.8 1.8 0 0 0 0-1.622ZM16.003 23a8 8 0 1 1 0-16 8 8 0 0 1 0 16Zm0-13.333a5.294 5.294 0 0 0-1.406.21 2.661 2.661 0 0 1-3.717 3.717 5.323 5.323 0 1 0 5.123-3.927Z"/><path fill="none" d="M0 0h32v28.444H0z"/></symbol><symbol viewBox="0 0 32 26" id="visual-editor-tab" xmlns="http://www.w3.org/2000/svg"><path d="M12.75 13.285a.794.794 0 0 0 1.13 0l.565-.565a.794.794 0 0 0 0-1.13l-1.78-1.79 1.785-1.785a.794.794 0 0 0 0-1.13l-.565-.565a.794.794 0 0 0-1.13 0L9.84 9.235a.794.794 0 0 0 0 1.13l2.92 2.915-.01.005Zm4.8-.565.565.565a.794.794 0 0 0 1.13 0l2.915-2.915a.794.794 0 0 0 0-1.13l-2.915-2.915a.794.794 0 0 0-1.13 0l-.565.565a.794.794 0 0 0 0 1.13l1.79 1.78-1.785 1.785a.794.794 0 0 0 0 1.13l-.005.005ZM31.2 21H19.075c-.035.99-.735 1.6-1.635 1.6H14.4c-.935 0-1.65-.875-1.64-1.6H.8c-.44 0-.8.36-.8.8v.8c0 1.76 1.44 3.2 3.2 3.2h25.6c1.76 0 3.2-1.44 3.2-3.2v-.8c0-.44-.36-.8-.8-.8ZM28.8 2.6c0-1.32-1.08-2.4-2.4-2.4H5.6C4.28.2 3.2 1.28 3.2 2.6v16.8h25.6V2.6Zm-3.2 13.6H6.4V3.4h19.2v12.8Z"/><path fill="none" d="M0 0h32v25.6H0z"/></symbol></svg>