<?xml version="1.0" encoding="utf-8"?><svg xmlns="http://www.w3.org/2000/svg" xmlns:xlink="http://www.w3.org/1999/xlink"><symbol fill="none" viewBox="0 0 12 12" id="arrow-2" xmlns="http://www.w3.org/2000/svg"><path d="M7.5 9.75 3.75 6 7.5 2.25" stroke="currentColor" stroke-width="2" stroke-linecap="round" stroke-linejoin="round"/></symbol><symbol fill="none" viewBox="0 0 18 18" id="arrow-bold" xmlns="http://www.w3.org/2000/svg"><path d="M6.75 3.375 12.375 9 6.75 14.625" stroke="currentColor" stroke-width="2" stroke-linecap="round" stroke-linejoin="round"/></symbol><symbol fill="none" viewBox="0 0 22 22" id="arrow-to-bottom" xmlns="http://www.w3.org/2000/svg"><path d="m19 7-8 8-8-8" stroke="currentColor" stroke-width="1.5" stroke-linecap="round" stroke-linejoin="round"/></symbol><symbol fill="currentColor" viewBox="0 0 36 36" id="list" xmlns="http://www.w3.org/2000/svg"><path d="M5.625 27h24.75m-24.75-9h24.75M5.625 9h24.75" stroke="currentColor" stroke-width="3" stroke-linecap="round" stroke-linejoin="round"/></symbol><symbol fill="none" viewBox="0 0 18 18" id="message-read" xmlns="http://www.w3.org/2000/svg"><path d="m1.059 9.776 2.955 2.758 7.756-7.24m5.171.173-7.756 7.239-.924-.862" stroke="currentColor" stroke-width="1.5" stroke-linecap="round" stroke-linejoin="round"/></symbol><symbol fill="none" viewBox="0 0 18 18" id="message-sent" xmlns="http://www.w3.org/2000/svg"><path d="m3.176 9.842 3.194 2.864 8.453-7.412" stroke="currentColor" stroke-width="1.5" stroke-linecap="round" stroke-linejoin="round"/></symbol><symbol fill="currentColor" viewBox="0 0 11 20" id="message-tail-filled" xmlns="http://www.w3.org/2000/svg"><path d="M3 19h6V2c-.193 2.84-.876 5.767-2.05 8.782-.904 2.325-2.446 4.485-4.625 6.48A1 1 0 0 0 3 19z" fill="inherit" fill-rule="evenodd"/></symbol><symbol viewBox="0 0 24 24" fill="none" stroke="currentColor" stroke-width="2" stroke-linecap="round" stroke-linejoin="round" class="hfeather hfeather-plus-circle" id="new-chat" xmlns="http://www.w3.org/2000/svg"><circle cx="12" cy="12" r="10"/><path d="M12 8v8M8 12h8"/></symbol><symbol fill="none" viewBox="0 0 27 27" id="paper-clip" xmlns="http://www.w3.org/2000/svg"><path d="M6.278 11.806 13 4.982C19.012-1.029 28.03 7.988 22.017 14l-8.683 8.678c-4.008 4.008-10.02-2.004-6.012-6.011l8.684-8.679c1.989-1.94 4.991 1.109 3.34 3.006l-8.308 8.433" stroke="currentColor" stroke-width="1.5" stroke-linecap="round"/></symbol><symbol fill="none" viewBox="0 0 32 32" id="speech-balloon" xmlns="http://www.w3.org/2000/svg"><path d="M3.1 23.255c-1.865-2.98-2.518-6.502-1.837-9.906.681-3.404 2.65-6.455 5.535-8.58C9.684 2.644 13.29 1.59 16.937 1.807c3.647.216 7.085 1.687 9.67 4.137 2.584 2.45 4.135 5.71 4.364 9.168.228 3.458-.883 6.875-3.125 9.612-2.241 2.736-5.46 4.602-9.05 5.248-3.59.645-7.306.026-10.449-1.741h0l-5.183 1.403c-.214.059-.441.061-.657.008a1.27 1.27 0 0 1-.57-.31 1.172 1.172 0 0 1-.327-.54 1.126 1.126 0 0 1 .008-.623L3.1 23.255h0Z" fill="currentColor" stroke="currentColor" stroke-width="2" stroke-linecap="round" stroke-linejoin="round"/></symbol><symbol fill="none" viewBox="0 0 23 23" id="telegram-pencil" xmlns="http://www.w3.org/2000/svg"><path d="M16.466 10.227 8.474 18.3c-.348.353-.92.44-1.162.44H5.277c-.34 0-1.017-.205-1.017-1.027s-.001-1.761 0-2.055c0-.294.117-.706.436-1.027.122-.123 4.681-4.627 8.132-8.08m3.639 3.676 1.889-1.909c.29-.293.697-1.057 0-1.761l-1.89-1.909c-.697-.704-1.453-.293-1.743 0-.558.563-1.204 1.212-1.895 1.903m3.639 3.676L12.828 6.55" stroke="currentColor" stroke-width="1.5"/></symbol><symbol viewBox="0 0 24 24" id="telegram-preloader-download" xmlns="http://www.w3.org/2000/svg"><g fill="none" fill-rule="evenodd"><path d="M0 0h24v24H0z"/><path fill="currentColor" fill-rule="nonzero" d="M5 19h14a1 1 0 0 1 .117 1.993L19 21H5a1 1 0 0 1-.117-1.993L5 19h14H5Zm6.883-15.993L12 3a1 1 0 0 1 .993.883L13 4v9.585l3.293-3.292a1 1 0 0 1 1.32-.083l.094.083a1 1 0 0 1 .083 1.32l-.083.094-5 5a1 1 0 0 1-1.32.083l-.094-.083-5-5a1 1 0 0 1 1.32-1.497l.094.083L11 13.585V4a1 1 0 0 1 .883-.993L12 3l-.117.007Z"/></g></symbol><symbol fill="none" viewBox="0 0 25 25" id="telegram-send" xmlns="http://www.w3.org/2000/svg"><path d="M2.78 3.69c0-.305 0-.912 1.077-.912 1.386 0 16.78 7.9 17.858 8.81.863.73.46 1.52-.001 1.824-1.077.91-16.619 8.806-17.858 8.81-1.078 0-1.078-.607-1.078-.911l1.079-6.684c.122-.73.462-.912.616-.912l9.237-.911c.103 0 .308-.061.308-.304s-.205-.304-.308-.304l-9.237-.911c-.154 0-.494-.183-.616-.912-.361-2.203-1.078-6.38-1.078-6.684Z" fill="currentColor"/></symbol><symbol fill="none" viewBox="0 0 23 23" id="telegram-trash" xmlns="http://www.w3.org/2000/svg"><path d="M6.145 8.695a.75.75 0 1 0-1.5 0h1.5Zm9.046 11.75v.75h.036l.035-.004-.07-.747Zm2.312-11.75a.75.75 0 0 0-1.5 0h1.5Zm-3.123 1.762a.75.75 0 1 0-1.5 0h1.5Zm-1.5 6.462a.75.75 0 1 0 1.5 0h-1.5Zm-1.056-6.462a.75.75 0 0 0-1.5 0h1.5Zm-1.5 6.462a.75.75 0 1 0 1.5 0h-1.5ZM9.27 10.457a.75.75 0 0 0-1.5 0h1.5Zm-1.5 6.462a.75.75 0 1 0 1.5 0h-1.5ZM4.259 5.301a.75.75 0 1 0 0 1.5v-1.5Zm13.63 1.5a.75.75 0 0 0 0-1.5v1.5ZM4.645 8.695v10.134h1.5V8.695h-1.5Zm0 10.134c0 .384.106.948.447 1.438.369.53.985.927 1.865.927v-1.5c-.37 0-.534-.14-.634-.284a1.102 1.102 0 0 1-.178-.581h-1.5Zm2.312 2.365H15.19v-1.5H6.957v1.5Zm8.305-.003a2.731 2.731 0 0 0 1.363-.538c.488-.377.878-.978.878-1.824h-1.5c0 .329-.13.51-.293.636-.192.148-.44.219-.589.233l.14 1.493Zm2.241-2.362V8.695h-1.5V18.829h1.5Zm-4.623-8.372v6.462h1.5v-6.462h-1.5Zm-2.556 0v6.462h1.5v-6.462h-1.5Zm-2.555 0v6.462h1.5v-6.462h-1.5Zm-3.51-3.656h4.26v-1.5h-4.26v1.5Zm4.26 0h9.37v-1.5h-9.37v1.5Zm-.75-1.778v1.028h1.5V5.023h-1.5Zm1.5 0c0-.154.05-.399.177-.581.1-.144.265-.285.634-.285v-1.5c-.88 0-1.496.398-1.865.928a2.598 2.598 0 0 0-.446 1.438h1.5Zm3.61 0v1.028h1.5V5.023h-1.5Zm1.5 0c0-.384-.105-.948-.446-1.438-.369-.53-.985-.928-1.865-.928v1.5c.37 0 .534.141.634.285.127.182.178.427.178.581h1.5Zm-2.311-2.366H10.08v1.5h1.988v-1.5Z" fill="currentColor"/></symbol><symbol fill="none" viewBox="0 0 17 17" id="telegram-x" xmlns="http://www.w3.org/2000/svg"><path d="m12 5-7 7m0-7 7 7" stroke="currentColor" stroke-width="1.5" stroke-linecap="round"/></symbol></svg>