<?xml version="1.0" encoding="utf-8"?><svg xmlns="http://www.w3.org/2000/svg" xmlns:xlink="http://www.w3.org/1999/xlink"><symbol fill="none" viewBox="0 0 12 12" id="arrow-2" xmlns="http://www.w3.org/2000/svg"><path d="M7.5 9.75 3.75 6 7.5 2.25" stroke="currentColor" stroke-width="2" stroke-linecap="round" stroke-linejoin="round"/></symbol><symbol fill="none" viewBox="0 0 18 18" id="arrow-bold" xmlns="http://www.w3.org/2000/svg"><path d="M6.75 3.375 12.375 9 6.75 14.625" stroke="currentColor" stroke-width="2" stroke-linecap="round" stroke-linejoin="round"/></symbol><symbol fill="none" viewBox="0 0 27 27" id="copy" xmlns="http://www.w3.org/2000/svg"><path d="M5 18V7.833C5 6.556 5.767 4 8.833 4h6.5m-7 17.167c0 .61.367 1.833 1.834 1.833h9c.61-.056 1.833-.5 1.833-1.833v-12c0-.611-.367-1.834-1.833-1.834h-9c-.611.056-1.834.5-1.834 1.834v12Z" stroke="#868686" stroke-width="1.5" stroke-linecap="round"/></symbol><symbol fill="none" viewBox="0 0 27 27" id="fullscreen" xmlns="http://www.w3.org/2000/svg"><path d="M6 15.667v3.5c0 .277.167.833.833.833h3.5M20 15.667v3.5c0 .277-.167.833-.833.833h-3.5M6 10.333v-3.5C6 6.556 6.167 6 6.833 6h3.5M20 10.333v-3.5c0-.277-.167-.833-.833-.833h-3.5" stroke="#868686" stroke-width="1.5" stroke-linecap="round"/></symbol><symbol fill="none" viewBox="0 0 27 27" id="list" xmlns="http://www.w3.org/2000/svg"><path d="M3 7h20v2.333H3V7Zm0 5.833h20v2.334H3v-2.334Zm0 5.834h20V21H3v-2.333Z" fill="#868686"/></symbol><symbol fill="none" viewBox="0 0 17 17" id="message-read" xmlns="http://www.w3.org/2000/svg"><path d="m1 9.233 2.79 2.604L11.117 5M16 5.163 8.674 12l-.872-.814" stroke="#868686" stroke-width="1.5" stroke-linecap="round" stroke-linejoin="round"/></symbol><symbol fill="none" viewBox="0 0 17 17" id="message-sent" xmlns="http://www.w3.org/2000/svg"><path d="M3 9.295 6.016 12 14 5" stroke="#868686" stroke-width="1.5" stroke-linecap="round" stroke-linejoin="round"/></symbol><symbol fill="currentColor" viewBox="0 0 11 20" id="message-tail-filled" xmlns="http://www.w3.org/2000/svg"><path d="M3 19h6V2c-.193 2.84-.876 5.767-2.05 8.782-.904 2.325-2.446 4.485-4.625 6.48A1 1 0 0 0 3 19z" fill="inherit" fill-rule="evenodd"/></symbol><symbol fill="none" viewBox="0 0 27 27" id="new-chat" xmlns="http://www.w3.org/2000/svg"><path d="M8.184 18.793c-1.365 1.071-4.335 1.916-5.33 2.065.284-.744 1.558-2.679 1.28-4.465l-.015-.057C2.799 14.92 2 13.066 2 11.036 2 6.598 5.821 3 10.535 3s7.537 2.878 8.128 5.24M8.184 18.792c.75.182 1.538.279 2.35.279a9.04 9.04 0 0 1-2.32-.3l-.03.02Zm10.867-4.722v5.903m2.956-2.951h-5.911m8.904 0A5.981 5.981 0 0 1 19.015 23a5.981 5.981 0 0 1-5.986-5.977 5.981 5.981 0 0 1 5.986-5.977A5.981 5.981 0 0 1 25 17.023Z" stroke="#868686" stroke-width="1.5" stroke-linecap="round" stroke-linejoin="round"/></symbol><symbol fill="none" viewBox="0 0 27 27" id="paper-clip" xmlns="http://www.w3.org/2000/svg"><path d="M6.278 11.806 13 4.982C19.012-1.029 28.03 7.988 22.017 14l-8.683 8.678c-4.008 4.008-10.02-2.004-6.012-6.011l8.684-8.679c1.989-1.94 4.991 1.109 3.34 3.006l-8.308 8.433" stroke="#868686" stroke-width="1.5" stroke-linecap="round"/></symbol><symbol fill="none" viewBox="0 0 32 32" id="speech-balloon" xmlns="http://www.w3.org/2000/svg"><path d="M3.1 23.255c-1.865-2.98-2.518-6.502-1.837-9.906.681-3.404 2.65-6.455 5.535-8.58C9.684 2.644 13.29 1.59 16.937 1.807c3.647.216 7.085 1.687 9.67 4.137 2.584 2.45 4.135 5.71 4.364 9.168.228 3.458-.883 6.875-3.125 9.612-2.241 2.736-5.46 4.602-9.05 5.248-3.59.645-7.306.026-10.449-1.741h0l-5.183 1.403c-.214.059-.441.061-.657.008a1.27 1.27 0 0 1-.57-.31 1.172 1.172 0 0 1-.327-.54 1.126 1.126 0 0 1 .008-.623L3.1 23.255h0Z" fill="currentColor" stroke="currentColor" stroke-width="2" stroke-linecap="round" stroke-linejoin="round"/></symbol><symbol fill="none" viewBox="0 0 27 27" id="telegram-pencil" xmlns="http://www.w3.org/2000/svg"><path d="m19.33 12.005-9.382 9.478c-.41.414-1.08.517-1.365.517H6.194C5.796 22 5 21.759 5 20.794V18.38c.001-.345.138-.829.513-1.206.142-.144 5.495-5.432 9.546-9.484m4.271 4.314 2.218-2.24c.341-.345.819-1.24 0-2.068l-2.218-2.24c-.818-.827-1.706-.345-2.047 0-.654.66-1.413 1.422-2.224 2.234m4.271 4.314-4.27-4.314" stroke="#868686" stroke-width="1.5"/></symbol><symbol fill="none" viewBox="0 0 27 27" id="telegram-preloader-download" xmlns="http://www.w3.org/2000/svg"><path d="M6 22h15M13.5 5v12.879m0 0-5.058-4.98m5.058 4.98 5.058-4.98" stroke="#868686" stroke-width="1.5" stroke-linecap="round" stroke-linejoin="round"/></symbol><symbol fill="none" viewBox="0 0 25 25" id="telegram-send" xmlns="http://www.w3.org/2000/svg"><path d="M2.78 3.69c0-.305 0-.912 1.077-.912 1.386 0 16.78 7.9 17.858 8.81.863.73.46 1.52-.001 1.824-1.077.91-16.619 8.806-17.858 8.81-1.078 0-1.078-.607-1.078-.911l1.079-6.684c.122-.73.462-.912.616-.912l9.237-.911c.103 0 .308-.061.308-.304s-.205-.304-.308-.304l-9.237-.911c-.154 0-.494-.183-.616-.912-.361-2.203-1.078-6.38-1.078-6.684Z" fill="currentColor"/></symbol><symbol fill="none" viewBox="0 0 27 27" id="telegram-trash" xmlns="http://www.w3.org/2000/svg"><path d="M9.58 12.225a.75.75 0 1 0-1.494.121l1.495-.12Zm-.66 10.407a.75.75 0 0 0 1.494-.121l-1.495.121Zm8.66-10.286a.75.75 0 0 0-1.494-.12l1.495.12Zm-2.328 10.165a.75.75 0 0 0 1.496.121l-1.496-.121Zm-1.669-10.225a.75.75 0 0 0-1.5 0h1.5Zm-1.5 10.285a.75.75 0 0 0 1.5 0h-1.5Zm-5.916.515-.74.12.002.016.003.017.735-.153Zm13.5 0 .734.153.003-.017.003-.016-.74-.12ZM8.086 12.346l.833 10.286 1.495-.121-.833-10.286-1.495.121Zm8-.12-.834 10.285 1.496.121.833-10.286-1.495-.12Zm-4.003.06V22.57h1.5V12.286h-1.5Zm-7.916-4.35a.532.532 0 0 1-.283-.093.276.276 0 0 1-.086-.101.564.564 0 0 1-.048-.256h-1.5c0 .715.305 1.24.741 1.562.399.296.857.388 1.176.388v-1.5Zm-.417-.45c0-.305.17-.622.508-.892.344-.273.767-.415 1.075-.415v-1.5c-.691 0-1.435.286-2.008.741-.578.46-1.075 1.17-1.075 2.066h1.5Zm18.083 1.95c.32 0 .777-.092 1.176-.388.436-.322.741-.847.741-1.562h-1.5a.565.565 0 0 1-.048.256.276.276 0 0 1-.086.101.532.532 0 0 1-.283.093v1.5Zm1.917-1.95c0-.896-.497-1.607-1.075-2.066-.573-.455-1.317-.741-2.008-.741v1.5c.308 0 .73.142 1.075.415.339.27.508.587.508.892h1.5Zm-3.083-2.807h-11.5v1.5h11.5v-1.5Zm-11.5 0H5.333v1.5h3.834v-1.5Zm.75.75c0-.56.047-1.255.33-1.795.134-.254.315-.464.569-.614.254-.151.626-.27 1.184-.27v-1.5c-.776 0-1.424.167-1.95.48a3.002 3.002 0 0 0-1.13 1.207c-.467.889-.503 1.908-.503 2.492h1.5Zm7.833 0c0-.62-.086-1.636-.602-2.521C16.596 1.96 15.598 1.25 14 1.25v1.5c1.07 0 1.571.432 1.852.914.317.543.398 1.241.398 1.765h1.5ZM14 1.25h-2v1.5h2v-1.5ZM4.167 9.436h.5v-1.5h-.5v1.5Zm.5 0h17.166v-1.5H4.667v1.5ZM9 25.25c-.338 0-.743-.091-1.11-.39-.365-.295-.766-.854-.99-1.927l-1.468.306c.277 1.327.82 2.225 1.512 2.786A3.24 3.24 0 0 0 9 26.75v-1.5Zm-2.093-2.284c-.261-1.614-1.103-10.217-1.494-14.35l-1.493.14c.387 4.095 1.234 12.772 1.506 14.45l1.481-.24Zm9.926 3.784a3.24 3.24 0 0 0 2.056-.725c.692-.561 1.235-1.459 1.512-2.786l-1.469-.306c-.223 1.073-.624 1.632-.988 1.928a1.74 1.74 0 0 1-1.11.389v1.5Zm3.574-3.544c.272-1.678 1.12-10.355 1.506-14.45l-1.493-.14c-.39 4.133-1.232 12.736-1.494 14.35l1.481.24Zm-3.574 2.044H9v1.5h7.833v-1.5Z" fill="#868686"/></symbol><symbol fill="none" viewBox="0 0 27 27" id="telegram-x" xmlns="http://www.w3.org/2000/svg"><path d="M7 20 20 7m0 13L7 7" stroke="#868686" stroke-width="1.995"/></symbol></svg>