<svg width="40" height="40" viewBox="0 0 40 40" fill="none" xmlns="http://www.w3.org/2000/svg">
<path d="M20.0002 31.25V36.25M20.0002 31.25C22.7675 31.25 25.4378 30.2301 27.5005 28.3853C29.5633 26.5405 30.8738 24.0002 31.1815 21.25M20.0002 31.25C17.2328 31.25 14.5626 30.2301 12.4998 28.3853C10.4371 26.5405 9.12658 24.0002 8.81885 21.25M20.0002 3.75C21.6578 3.75 23.2475 4.40848 24.4196 5.58058C25.5917 6.75268 26.2502 8.3424 26.2502 10V20C26.2502 21.6576 25.5917 23.2473 24.4196 24.4194C23.2475 25.5915 21.6578 26.25 20.0002 26.25C19.1794 26.25 18.3667 26.0883 17.6084 25.7742C16.8501 25.4602 16.1611 24.9998 15.5808 24.4194C15.0004 23.8391 14.54 23.1501 14.2259 22.3918C13.9118 21.6335 13.7502 20.8208 13.7502 20V9.99999C13.7502 8.34239 14.4087 6.75268 15.5808 5.58058C16.7529 4.40848 18.3426 3.75 20.0002 3.75Z" stroke="currentColor" stroke-width="1.5" stroke-linecap="round" stroke-linejoin="round"/>
</svg>
