<svg width="20" height="20" viewBox="0 0 20 20" fill="none" xmlns="http://www.w3.org/2000/svg">
  <path stroke="currentColor" d="M16.25 15V16.25M13.75 12.5H16.25M11.25 16.25H13.75V11.25M11.25 11.25V13.75M4.375 11.25H8.125C8.47018 11.25 8.75 11.5298 8.75 11.875V15.625C8.75 15.9702 8.47018 16.25 8.125 16.25H4.375C4.02982 16.25 3.75 15.9702 3.75 15.625V11.875C3.75 11.5298 4.02982 11.25 4.375 11.25ZM11.875 3.75H15.625C15.9702 3.75 16.25 4.02982 16.25 4.375V8.125C16.25 8.47018 15.9702 8.75 15.625 8.75H11.875C11.5298 8.75 11.25 8.47018 11.25 8.125V4.375C11.25 4.02982 11.5298 3.75 11.875 3.75ZM4.375 3.75H8.125C8.47018 3.75 8.75 4.02982 8.75 4.375V8.125C8.75 8.47018 8.47018 8.75 8.125 8.75H4.375C4.02982 8.75 3.75 8.47018 3.75 8.125V4.375C3.75 4.02982 4.02982 3.75 4.375 3.75Z" stroke-width="1.5" stroke-linecap="round" stroke-linejoin="round"/>
</svg>
