<svg fill="none"  width="20" height="20" viewBox="0 0 24 24" xmlns="http://www.w3.org/2000/svg">
  <path stroke="currentColor" fill-rule="evenodd" clip-rule="evenodd" d="M4.42424 9.41667C3.49967 9.41667 2.75 10.1663 2.75 11.0909V19.5758C2.75 20.5003 3.49967 21.25 4.42424 21.25H19.5758C20.5003 21.25 21.25 20.5003 21.25 19.5758V11.0909C21.25 10.1663 20.5003 9.41667 19.5758 9.41667H15.9394C15.5252 9.41667 15.1894 9.08088 15.1894 8.66667C15.1894 8.25245 15.5252 7.91667 15.9394 7.91667H19.5758C21.3288 7.91667 22.75 9.33791 22.75 11.0909V19.5758C22.75 21.3288 21.3288 22.75 19.5758 22.75H4.42424C2.67124 22.75 1.25 21.3288 1.25 19.5758V11.0909C1.25 9.33791 2.67124 7.91667 4.42424 7.91667H8.06061C8.47482 7.91667 8.81061 8.25245 8.81061 8.66667C8.81061 9.08088 8.47482 9.41667 8.06061 9.41667H4.42424Z"/>
  <path stroke="currentColor" fill-rule="evenodd" clip-rule="evenodd" d="M12 1.25C12.4142 1.25 12.75 1.58579 12.75 2V15.9394C12.75 16.3536 12.4142 16.6894 12 16.6894C11.5858 16.6894 11.25 16.3536 11.25 15.9394V2C11.25 1.58579 11.5858 1.25 12 1.25Z"/>
  <path stroke="currentColor" fill-rule="evenodd" clip-rule="evenodd" d="M7.83331 12.9848C8.1262 12.6919 8.60107 12.6919 8.89397 12.9848L12 16.0909L15.106 12.9848C15.3989 12.6919 15.8738 12.6919 16.1667 12.9848C16.4596 13.2777 16.4596 13.7526 16.1667 14.0455L12.5303 17.6818C12.2374 17.9747 11.7626 17.9747 11.4697 17.6818L7.83331 14.0455C7.54041 13.7526 7.54041 13.2777 7.83331 12.9848Z"/>
</svg>
