<svg width="32" height="30" viewBox="0 0 32 30" xmlns="http://www.w3.org/2000/svg">
  <path
    d="M31.8081 14.1889C28.797 8.31109 22.8303 4.33331 16.0026 4.33331C9.17479 4.33331 3.20813 8.31109 0.197015 14.1889C0.0700503 14.4404 0.00390625 14.7182 0.00390625 15C0.00390625 15.2817 0.0700503 15.5596 0.197015 15.8111C3.20813 21.6889 9.17479 25.6666 16.0026 25.6666C22.8303 25.6666 28.797 21.6889 31.8081 15.8111C31.9351 15.5596 32.0012 15.2817 32.0012 15C32.0012 14.7182 31.9351 14.4404 31.8081 14.1889ZM16.0026 23C14.4203 23 12.8736 22.5308 11.558 21.6517C10.2424 20.7727 9.21704 19.5233 8.61154 18.0614C8.00603 16.5996 7.84761 14.9911 8.15629 13.4393C8.46497 11.8874 9.2269 10.4619 10.3457 9.34313C11.4645 8.22431 12.89 7.46238 14.4418 7.1537C15.9937 6.84502 17.6022 7.00344 19.064 7.60894C20.5258 8.21444 21.7753 9.23982 22.6543 10.5554C23.5334 11.871 24.0026 13.4177 24.0026 15C24.0033 16.0508 23.7969 17.0914 23.3951 18.0623C22.9933 19.0332 22.4041 19.9154 21.6611 20.6585C20.918 21.4015 20.0358 21.9907 19.0649 22.3925C18.094 22.7943 17.0534 23.0007 16.0026 23ZM16.0026 9.66665C15.5267 9.67352 15.0539 9.74453 14.597 9.87776C14.9689 10.3904 15.1459 11.0188 15.096 11.6502C15.0461 12.2815 14.7726 12.8744 14.3248 13.3222C13.877 13.7701 13.2841 14.0435 12.6528 14.0934C12.0214 14.1433 11.393 13.9664 10.8803 13.5944C10.5886 14.6689 10.6413 15.8079 11.0308 16.8509C11.4203 17.8939 12.1271 18.7885 13.0518 19.4088C13.9764 20.029 15.0723 20.3436 16.1851 20.3084C17.2979 20.2732 18.3717 19.8898 19.2552 19.2123C20.1388 18.5348 20.7876 17.5973 21.1103 16.5317C21.4331 15.4661 21.4135 14.3261 21.0544 13.2722C20.6953 12.2183 20.0147 11.3036 19.1085 10.6568C18.2022 10.01 17.116 9.6637 16.0026 9.66665Z"/>
  <rect width="32" height="28.4444" fill="none"/>
</svg>
