<svg width="32" height="26" viewBox="0 0 32 26" xmlns="http://www.w3.org/2000/svg">
  <path
    d="M12.75 13.285C13.065 13.6 13.57 13.6 13.88 13.285L14.445 12.72C14.76 12.405 14.76 11.9 14.445 11.59L12.665 9.80001L14.45 8.01501C14.765 7.70001 14.765 7.19501 14.45 6.88501L13.885 6.32001C13.57 6.00501 13.065 6.00501 12.755 6.32001L9.84 9.23501C9.525 9.55001 9.525 10.055 9.84 10.365L12.76 13.28L12.75 13.285ZM17.55 12.72L18.115 13.285C18.43 13.6 18.935 13.6 19.245 13.285L22.16 10.37C22.475 10.055 22.475 9.55001 22.16 9.24001L19.245 6.32501C18.93 6.01001 18.425 6.01001 18.115 6.32501L17.55 6.89001C17.235 7.20501 17.235 7.71001 17.55 8.02001L19.34 9.80001L17.555 11.585C17.24 11.9 17.24 12.405 17.555 12.715L17.55 12.72ZM31.2 21H19.075C19.04 21.99 18.34 22.6 17.44 22.6H14.4C13.465 22.6 12.75 21.725 12.76 21H0.8C0.36 21 0 21.36 0 21.8V22.6C0 24.36 1.44 25.8 3.2 25.8H28.8C30.56 25.8 32 24.36 32 22.6V21.8C32 21.36 31.64 21 31.2 21ZM28.8 2.60001C28.8 1.28001 27.72 0.200012 26.4 0.200012H5.6C4.28 0.200012 3.2 1.28001 3.2 2.60001V19.4H28.8V2.60001ZM25.6 16.2H6.4V3.40001H25.6V16.2Z"/>
  <rect width="32" height="25.6" fill="none"/>
</svg>
